<svg xmlns="http://www.w3.org/2000/svg" xmlns:xlink="http://www.w3.org/1999/xlink" version="1.0" width="1060" height="742" viewBox="-2100 -1470 1060 742"><defs><path id="i" d="m -31.5,0 h 33 a 30,30 0 0 0 30,-30 v -10 a 30,30 0 0 0 -30,-30 h -33 z m 13,-13 h 19 a 19,19 0 0 0 19,-19 v -6 a 19,19 0 0 0 -19,-19 h -19 z" fill-rule="evenodd"/><path id="j" d="M 0,0 H 63 V -13 H 12 V -31 H 52 V -43 H 12 V -57 H 60 V -70 H 0 Z" transform="translate(-31.5)"/><path id="l" d="m -26.25,0 h 52.5 v -12 h -40.5 v -16 h 33 v -12 h -33 V -51 H 25 v -12 h -51.25 z"/><path id="k" d="m -31.5,0 h 12 v -48 l 14,48 h 11 l 14,-48 V 0 h 12 V -70 H 14 L 0,-22 -14,-70 h -17.5 z"/><path id="a" d="M 0,0 A 31.5,35 0 0 0 0,-70 31.5,35 0 0 0 0,0 m 0,-13 a 18.5,22 0 0 0 0,-44 18.5,22 0 0 0 0,44" fill-rule="evenodd"/><path id="c" d="m -31.5,0 h 13 v -26 h 28 a 22,22 0 0 0 0,-44 h -40 z m 13,-39 h 27 a 9,9 0 0 0 0,-18 h -27 z" fill-rule="evenodd"/><path id="n" d="m -15.75,-22 c 0,7 6.75,10.5 16.75,10.5 10,0 14.74,-3.25 14.75,-7.75 C 15.75,-33.5 -31,-24.5 -30.75,-49.5 -30.5,-71 -6,-70 3,-70 c 9,0 26,4 25.75,21.25 H 13.5 c 0,-7.5 -7,-10.25 -15,-10.25 -7.75,0 -13.25,1.25 -13.25,8.5 -0.25,11.75 46.25,4 46.25,28.75 C 31.5,-3.5 13.5,0 0,0 -11.5,0 -31.55,-4.5 -31.5,-22 Z"/><use id="o" xlink:href="#f" transform="scale(31.5)" x="0" y="0" width="100%" height="100%"/><use id="p" xlink:href="#f" transform="scale(26.25)" x="0" y="0" width="100%" height="100%"/><use id="r" xlink:href="#f" transform="scale(21)" x="0" y="0" width="100%" height="100%"/><use id="q" xlink:href="#f" transform="scale(15)" x="0" y="0" width="100%" height="100%"/><use id="s" xlink:href="#f" transform="scale(10.5)" x="0" y="0" width="100%" height="100%"/><g id="m"><clipPath id="b"><path d="m -31.5,0 v -70 h 63 V 0 Z M 0,-47 v 12 h 31.5 v -12 z"/></clipPath><use xlink:href="#a" clip-path="url(#b)" width="100%" height="100%"/><path d="M5 -35H31.5V-25H5z"/><path d="M21.5 -35H31.5V0H21.5z"/></g><g id="h"><use xlink:href="#c" width="100%" height="100%"/><path d="m 28,0 c 0,-10 0,-32 -15,-32 H -6 c 22,0 22,22 22,32"/></g><g id="f" fill="#fff"><g id="e"><path id="d" d="M 0,-1 V 0 H 0.5" transform="rotate(18,0,-1)"/><use xlink:href="#d" transform="scale(-1,1)" width="100%" height="100%"/></g><use xlink:href="#e" transform="rotate(72)" width="100%" height="100%"/><use xlink:href="#e" transform="rotate(-72)" width="100%" height="100%"/><use xlink:href="#e" transform="rotate(144)" width="100%" height="100%"/><use xlink:href="#e" transform="rotate(-144)" width="100%" height="100%"/></g></defs><path fill="#009b3a" fill-rule="evenodd" d="M-2100 -1470H-1040V-728H-2100z"/><clipPath id="g"><circle r="735"/></clipPath><g transform="matrix(0.25238094,0,0,0.25238094,-1570,-1099)"><path d="M -1743,0 0,1113 1743,0 0,-1113 Z" fill="#fedf00"/><circle r="735" fill="#002776"/><path clip-path="url(#g)" d="m -2205,1470 a 1785,1785 0 0 1 3570,0 h -105 a 1680,1680 0 1 0 -3360,0 z" fill="#fff"/><g transform="translate(-420,1470)" fill="#009b3a"><use transform="rotate(-7)" y="-1697.5" xlink:href="#a" width="100%" height="100%"/><use transform="rotate(-4)" y="-1697.5" xlink:href="#h" width="100%" height="100%"/><use transform="rotate(-1)" y="-1697.5" xlink:href="#i" width="100%" height="100%"/><use transform="rotate(2)" y="-1697.5" xlink:href="#j" width="100%" height="100%"/><use transform="rotate(5)" y="-1697.5" xlink:href="#k" width="100%" height="100%"/><use transform="rotate(9.75)" y="-1697.5" xlink:href="#l" width="100%" height="100%"/><use transform="rotate(14.5)" y="-1697.5" xlink:href="#c" width="100%" height="100%"/><use transform="rotate(17.5)" y="-1697.5" xlink:href="#h" width="100%" height="100%"/><use transform="rotate(20.5)" y="-1697.5" xlink:href="#a" width="100%" height="100%"/><use transform="rotate(23.5)" y="-1697.5" xlink:href="#m" width="100%" height="100%"/><use transform="rotate(26.5)" y="-1697.5" xlink:href="#h" width="100%" height="100%"/><use transform="rotate(29.5)" y="-1697.5" xlink:href="#j" width="100%" height="100%"/><use transform="rotate(32.5)" y="-1697.5" xlink:href="#n" width="100%" height="100%"/><use transform="rotate(35.5)" y="-1697.5" xlink:href="#n" width="100%" height="100%"/><use transform="rotate(38.5)" y="-1697.5" xlink:href="#a" width="100%" height="100%"/></g><use y="-132" x="-600" xlink:href="#o" width="100%" height="100%"/><use y="177" x="-535" xlink:href="#o" width="100%" height="100%"/><use y="243" x="-625" xlink:href="#p" width="100%" height="100%"/><use y="132" x="-463" xlink:href="#q" width="100%" height="100%"/><use y="250" x="-382" xlink:href="#p" width="100%" height="100%"/><use y="323" x="-404" xlink:href="#r" width="100%" height="100%"/><use y="-228" x="228" xlink:href="#o" width="100%" height="100%"/><use y="258" x="515" xlink:href="#o" width="100%" height="100%"/><use y="265" x="617" xlink:href="#r" width="100%" height="100%"/><use y="323" x="545" xlink:href="#p" width="100%" height="100%"/><use y="477" x="368" xlink:href="#p" width="100%" height="100%"/><use y="551" x="367" xlink:href="#r" width="100%" height="100%"/><use y="419" x="441" xlink:href="#r" width="100%" height="100%"/><use y="382" x="500" xlink:href="#p" width="100%" height="100%"/><use y="405" x="365" xlink:href="#r" width="100%" height="100%"/><use y="30" x="-280" xlink:href="#p" width="100%" height="100%"/><use y="-37" x="200" xlink:href="#r" width="100%" height="100%"/><use y="330" xlink:href="#o" width="100%" height="100%"/><use y="184" x="85" xlink:href="#p" width="100%" height="100%"/><use y="118" xlink:href="#p" width="100%" height="100%"/><use y="184" x="-74" xlink:href="#r" width="100%" height="100%"/><use y="235" x="-37" xlink:href="#q" width="100%" height="100%"/><use y="495" x="220" xlink:href="#p" width="100%" height="100%"/><use y="430" x="283" xlink:href="#r" width="100%" height="100%"/><use y="412" x="162" xlink:href="#r" width="100%" height="100%"/><use y="390" x="-295" xlink:href="#o" width="100%" height="100%"/><use y="575" xlink:href="#s" width="100%" height="100%"/></g></svg>
