<?xml version="1.0" encoding="UTF-8" standalone="no"?>
<svg
   xmlns:dc="http://purl.org/dc/elements/1.1/"
   xmlns:cc="http://creativecommons.org/ns#"
   xmlns:rdf="http://www.w3.org/1999/02/22-rdf-syntax-ns#"
   xmlns:svg="http://www.w3.org/2000/svg"
   xmlns="http://www.w3.org/2000/svg"
   xmlns:xlink="http://www.w3.org/1999/xlink"
   xmlns:sodipodi="http://sodipodi.sourceforge.net/DTD/sodipodi-0.dtd"
   xmlns:inkscape="http://www.inkscape.org/namespaces/inkscape"
   inkscape:version="1.0 (4035a4fb49, 2020-05-01)"
   sodipodi:docname="Flag_of_Nova_Scotia.svg"
   id="svg128"
   version="1.1"
   viewBox="-4800 -2400 9600 4800"
   height="600"
   width="1200">
  <metadata
     id="metadata132">
    <rdf:RDF>
      <cc:Work
         rdf:about="">
        <dc:format>image/svg+xml</dc:format>
        <dc:type
           rdf:resource="http://purl.org/dc/dcmitype/StillImage" />
      </cc:Work>
    </rdf:RDF>
  </metadata>
  <sodipodi:namedview
     inkscape:current-layer="svg128"
     inkscape:window-maximized="1"
     inkscape:window-y="-8"
     inkscape:window-x="-8"
     inkscape:cy="300"
     inkscape:cx="421.63636"
     inkscape:zoom="0.91666667"
     showgrid="false"
     id="namedview130"
     inkscape:window-height="1018"
     inkscape:window-width="1920"
     inkscape:pageshadow="2"
     inkscape:pageopacity="0"
     guidetolerance="10"
     gridtolerance="10"
     objecttolerance="10"
     borderopacity="1"
     bordercolor="#666666"
     pagecolor="#ffffff" />
  <title
     id="title78">Flag of Nova Scotia</title>
  <defs
     id="defs86">
    <path
       d="m-4800-2400h9600v4800h-9600z"
       id="f" />
    <path
       d="M -677,-897 V 182 c 0,145 61,261 159,363 98,103 234,184 343,228 L 0,835 174,774 C 284,729 420,648 518,545 616,443 677,327 677,182 V -897 Z"
       fill="none"
       id="s" />
    <path
       d="m30-96c19-38 74-47 91-17 19 34-16 55-30 60 14-34-45-67-59 4-9 45 9 112 40 155-23-6-48-21-56-40 3 34-9 49-16 62-7-13-19-28-16-62-8 19-33 34-56 40 31-43 49-110 40-155-14-71-73-38-59-4-14-5-49-26-30-60 17-30 72-21 91 17-11-38 8-93 30-114 22 21 41 76 30 114z"
       id="d" />
    <clipPath
       id="c">
      <use
         id="use83"
         xlink:href="#f" />
    </clipPath>
  </defs>
  <use
     id="use88"
     fill="#fff"
     xlink:href="#f" />
  <path
     id="path90"
     d="m-4800-2400 9600 4800m-9600 0 9600-4800"
     stroke-width="960"
     stroke="#0047b6"
     fill="none"
     clip-path="url(#c)" />
  <g
     id="g126"
     stroke-width="10"
     stroke="#000"
     fill="#d21034">
    <path
       sodipodi:nodetypes="cccccccccc"
       id="path92"
       d="M -876.6133,-1096.6133 V 252.52323 c 0,187.75236 78.98548,337.95425 205.88018,470.02833 126.8947,133.36891 302.99346,222.25124 444.13144,279.22444 l 226.59768,77 225.30283,-75.7052 C 367.73166,944.8028 543.83042,855.92047 670.72512,722.55156 797.61982,590.47748 876.6053,440.27559 876.6053,252.52323 V -1096.6133 Z"
       stroke-width="23"
       fill="#fdd44f" />
    <path
       id="path94"
       d="m422-645c28-2 36 24 42 38 5 16 14 22 29 29 17 6 42 1 55-22 0 26-11 54-45 43 17 23 6 26 0 43-7 19-2 55 28 57-39 24-62 7-67-40 0 40-40 57-14 106-17 0-56 3-71-34-13-36-4-76 26-104-17 13-19 21-34 25-13-25-9-59 4-77 15-21 0-53-28-43-42 11-77 60-73 137 3 71 19 105 99 180 87 81 113 133 117 235 3 103-55 178-150 191-59 10-96-5-120-26 0 24-6 30-8 58-2 32 24 47 47 51 22 4 63-23 88-53-4 34 9 53 32 66 0 0-10 2-27 0 14 0 16 17 23 32 10 15 25 19 42 17-6 24-48 11-65 32 19-17 33 9 48 7-10 17-21 21-48 30 15 0 27 26 42 17-11 24-36 23-54 28 11 2 20 17 37 8-7 34-32 41-71 41 22 2 26 15 49 17-21 30-36 32-65 21 8 20 5 32 3 45 9-4 26-11 30 13 1 10 1 17-2 22 4 25-2 43-34 51 4-11 7-21 5-28-28 15-27-9-22-28 0 0-2-15-11-34-8 13-34 17-36 30-2 15 7 34 0 51-5 9-13 10-22 7-8 10-4 18-2 38-45-9-44-40-23-60-7 1-11 5-15 5-7 9-5 15-4 29-26-12-41-33-17-54-2-8 1-16 12-21-5-3-7-6-9-11-11 5-19 1-31 20-14-18-10-55 28-58 4-11 12-21 23-21 17 0 15 21 28 17 15-4 23-4 26-21 6-17 17-54 38-69-19-21-22-42-17-74-24 44-37 42-51 47-11 6-31-1-52-26-21 36 15 57 28 64-25 15-34 6-49-19-8 11-15 23-9 47-23-15-19-34-19-60-19 9-21 13-24 41-23-52 24-62 37-82 15-21-4-53-25-87-6-12-10-25-12-37-60-4-89 32-98 75-6 28 4 34 11 56 19 17 38 15 66 2-15 32-38 42-58 28 0 0-4 6-19 23-17 17-28 6-41-28 2 22-4 30-23 50-2-17-22-20-36-48 6 11-11 20-18 31-17-15-27-18-36-43 4 12-26 12-23 23-39-15-17-28-35-45-13-10-23 15-34 26 4 19-4 24-17 28-15 13-19 25-19 42-27-17-23-46-14-61-7-14 3-26 25-31 6-6 19-10 23-19-17 5-45 0-65 0-4 14-25 22-31-1-11-1-27-4-45 14-5-45 27-50 46-46 2-4 4-8 7-11-11 0-21-3-32 4-12-36 18-42 31-38 9-13 17-14 33-5-10-9-30-17-43-17 7-28 43-17 56-9v4c31-21 30 16 28 30 17 9 23 16 43 33 23-5 90 2 137 6 13-17 8-19-2-32-9-15-20-37-9-58-21 13-28-11-47 11-9-19-8-17 0-43-23 34-58 49-83 19 60 15 30-32 83-45-62 19-87-17-88-58 32 45 52 24 75 37-34-38-11-68 23-71-10 7-27 37-3 52 46 27 70-11 96-28 27-17 64-15 89 7 22-5 40-1 66-1-1-11-4-20-10-28-21-30-73-23-101-42-19-11-38-28-53-56-6 10-19 15-38 32 2-10 0-7-5-26 0 5-10 13-4 24-27-2-43-8-55-20 5 9-2 18 12 26-28 3-36-4-47-23 7 13-4 26 7 36-15 3-28-10-39-23 6 9 0 21 19 32-21 8-43-2-49-26 2 15-9 20 0 33-9-3-19-5-30-20 2 17-4 17-11 28 0 0-4-7-15-28 4 13 7 28-4 45 0 0-6-5-15-34 7 31-8 47-32 74 9-27-11-27-4-62 4-13-3-12-13-6-11 8-21 28-26 43 5 17 5 23-6 38-5 7-11 9-19 8-7 9-8 24-9 38-21-12-21-40-15-55-6-12 3-23 19-31 0 0 7-17 9-41-17 13-24 9-41 15-1 18-9 26-36 27-14 5-23 28-30 44-15-24-10-49 4-66-8-26 21-28 43-28 13-9 19-9 39-24l-22-4c-22 4-31 0-34-8-10-4-23-2-35 6 0-26 21-46 43-36 10-9 27-5 35 14 0 0 40 5 60 5 15-17 38-18 57-22 41-46 106-71 151-113-3-16-16-22-26-37-11-17-14-21-12-38-2 5-8 6-8 21-13-11-16-30-14-47-3 5-7 11-9 19-11-23-15-43 0-81-7 17-15 32-24 41-5-32 3-49 5-85-1 10-8 18-16 33-6-19-4-48-4-70 0 0-6 17-9 26 0 0-2-28-2-56 0 9-8 36-11 23-4-15-19-51-29-61-9-9-26 4-37 3-4 15-6 28-25 16-26 8-47 1-58-33 7 12 32 9 47 11 0-9 3-17 4-23 1-13 26-13 48-13-26-10-13-34-16-45 0 0-8 9-27 15-12 4-19-6-23-18-10-4-24-3-41-1 9-17 28-26 40-23 3-11 16-13 32-7-2-7-2-12-1-16-8-8-8-9-35-14 19-26 43-15 55-4 13-3 27 10 33 25 4-12 0-10 8-23 2-15-2-22-15-35 18 0 43 16 43 34 22 16 18 33 8 58-10 25 13 43 45 60 30 15 69 82 86 127 19 45 60 89 124 111l171 56c15 59 77 123 99 171 8 15 13 38 19 62 26 34 60 76 124 77 73 2 107-62 109-101 2-39-24-85-68-85-47 0-50 60-16 59-14 26-62 22-57-25-19 21-45 55-15 86-43-13-51-82 0-110-34 0-54-13-45-51 21 27 38 32 62 25 4-17 6-21 23-25-23-22-27-69 26-80-19 28-17 61 9 71 28 11 64 13 83 60 0-85-39-122-114-194-70-67-89-112-93-178-4-79 27-150 104-171 75-20 78-11 93-64 25 27 16 51-9 68z" />
    <path
       id="path96"
       d="m65-592c34-2 55 24 62 54 19 6 28-7 38-17-2 17-4 26-15 36 24 13 11 37 13 60 2 22 21 32 43 28-13 26-21 28-45 22 15 12 17 27 19 46 2 18 17 24 35 24-3 26-28 23-50 17 11 11 11 19 6 32-4 11 3 34 30 39-4 23-23 28-40 11-6 34 2 46 25 51-30 32-62 11-64-51-8 51-2 89 15 106-30 7-55-14-53-34 2-21-4-19-13-45-6 15-6 18 4 43 11 24-4 30 5 51-20-6-32-15-32-38 0-22-3-26-3-56-6 22-4 32-6 56-2 25-19 34-41 34 0 0 6-17 6-28 0-12 1-23 7-57-6 27-26 66-34 77-7 12-34 15-51 13 8-7 8-16 13-26 4-7 16-32 27-50-13 11-15 24-27 39-13 13-28 11-39-11 11 9 19-13 19-34 0-21 0-23 26-38-18 2-39 17-47 38-9 21-26 24-50 7 16-1 18-9 28-28 7-18 20-20 37-32-24 6-19-13-52 27-32 37-51 47-89 45 23-8 40-19 42-32 2-11 9-34 28-40-23 0-41-17-49-35 21 3 49 7 71-2 23-10 30-15 57-19 9-21 19-24 50-24 32 0 34-19 44-42-21 14-64 12-92 6-14 11-10 17-27 13 12-9 12-26 10-43-2-19 6-8 20-4-1-8 1-20 4-24 2 11 10 17 19 26 18 0 39-2 49-4 11-2 15-7 15-12-22-16-48-12-83-10-34 2-58 3-79-27-20-30-11-56 10-67-13 36 31 72 67 71-8-9-10-20-8-29-22 0-30-8-24-21 4-10-3-23 0-40-13-11-11-26-1-24 7 1 18-2 39-2 20 0 26-2 34-13 5-14 30-10 47-12 15-1 35-17 50-35 10 18 8 18 0 34zm-107 110c-4 3-9 4-14 4-4 7-6 17-10 28 23-1 44-1 65 3-4-16-1-31-1-40-15 5-23-4-40 5z" />
    <path
       id="path98"
       d="m176 572c-2-17 2-21 11-27 12-7 19-16 23-24m-58 10c18-5 28-12 35-29m-559-235c17-10 30-9 37 4 8 12 14 12 27 15m-32-58c13 6 19 17 24 25 4 9 13 16 26 24m400-60c2 19 27 41 47 34m107-15c17-2 23 3 36-6 0 15-4 26-2 38m-208-812c19 2 49 15 60 25m-128 484c30 26 56 68 59 100m-93-376c-22 6-37 6-54 11-17 4-11 8-34 21-22 15-34 21-58 26m156-257c-2 15 15 36 26 43m385 4c-4 30 0 53 39 64m-43-130c10-15 19-20 19-35m-858-55c19 8 47 28 56 47m-4-56c6 15 12 26 17 37m282 530c23 7 28 7 41 6m203-354c-22-14-28-24-37-45m-2 214c-2-17-2-41-4-46m43 46c6-32-6-52-22-63m26-19c-8-9-19-15-23-30"
       fill="none" />
    <path
       id="path100"
       d="m-29-547c4-8 10-15 10-15 9 9 30 15 22 28-22 3-37-6-45-13z"
       fill="#000" />
    <use
       id="use102"
       transform="rotate(180,0,-456)"
       xlink:href="#d" />
    <use
       id="use104"
       transform="rotate(45,1362,344)"
       xlink:href="#d" />
    <use
       id="use106"
       transform="rotate(270,221,-466)"
       xlink:href="#d" />
    <use
       id="use108"
       transform="rotate(129,154,369)"
       xlink:href="#d" />
    <use
       id="use110"
       transform="translate(0,807)"
       xlink:href="#d" />
    <use
       id="use112"
       transform="rotate(231,-154,369)"
       xlink:href="#d" />
    <use
       id="use114"
       transform="rotate(90,-221,-466)"
       xlink:href="#d" />
    <use
       id="use116"
       transform="rotate(315,-1362,344)"
       xlink:href="#d" />
    <use
       id="use118"
       stroke-width="112"
       xlink:href="#s" />
    <use
       id="use120"
       stroke="#d21034"
       stroke-width="92"
       xlink:href="#s" />
    <use
       id="use122"
       stroke-width="46"
       xlink:href="#s" />
    <use
       id="use124"
       stroke="#fdd44f"
       stroke-width="26"
       xlink:href="#s" />
  </g>
</svg>
