<?xml version="1.0" encoding="UTF-8" standalone="no"?>
<svg
   xmlns:dc="http://purl.org/dc/elements/1.1/"
   xmlns:cc="http://creativecommons.org/ns#"
   xmlns:rdf="http://www.w3.org/1999/02/22-rdf-syntax-ns#"
   xmlns:svg="http://www.w3.org/2000/svg"
   xmlns="http://www.w3.org/2000/svg"
   xmlns:xlink="http://www.w3.org/1999/xlink"
   xmlns:sodipodi="http://sodipodi.sourceforge.net/DTD/sodipodi-0.dtd"
   xmlns:inkscape="http://www.inkscape.org/namespaces/inkscape"
   width="600"
   height="300"
   version="1.1"
   id="svg239"
   sodipodi:docname="Ulster_Banner.svg"
   inkscape:version="0.92.3 (2405546, 2018-03-11)">
  <title
     id="title1068">Flag of Northern Ireland</title>
  <metadata
     id="metadata245">
    <rdf:RDF>
      <cc:Work
         rdf:about="">
        <dc:format>image/svg+xml</dc:format>
        <dc:type
           rdf:resource="http://purl.org/dc/dcmitype/StillImage" />
        <dc:title>Flag of Northern Ireland</dc:title>
      </cc:Work>
    </rdf:RDF>
  </metadata>
  <defs
     id="defs243" />
  <sodipodi:namedview
     pagecolor="#ffffff"
     bordercolor="#666666"
     borderopacity="1"
     objecttolerance="10"
     gridtolerance="10"
     guidetolerance="10"
     inkscape:pageopacity="0"
     inkscape:pageshadow="2"
     inkscape:window-width="1471"
     inkscape:window-height="841"
     id="namedview241"
     showgrid="false"
     inkscape:zoom="1.352931"
     inkscape:cx="318.03369"
     inkscape:cy="149.37856"
     inkscape:window-x="57"
     inkscape:window-y="-8"
     inkscape:window-maximized="1"
     inkscape:current-layer="svg239" />
  <rect
     width="600"
     height="300"
     rx="0"
     ry="0"
     fill="#fff"
     fill-rule="evenodd"
     id="rect2" />
  <rect
     id="a"
     y="120"
     width="600"
     height="60"
     rx="0"
     ry="0"
     fill="#c00"
     fill-rule="evenodd" />
  <use
     transform="matrix(0 .5 -1 0 450 0)"
     width="600"
     height="300"
     xlink:href="#a"
     id="use5" />
  <path
     d="m322 91.631c1.9255-3.0124.77409-4.9577-2.1381-5.5589 0 0-9.2916 2.9784-19.327 3.3053-10.035.3269-21.958-2.5238-21.958-2.5238-2.1382 1.3417-1.6164 4.5256-.5559 6.5133 0 0 10.505 3.4901 22.464 3.1474 7.596-.21763 14.794-2.1559 18.832-3.4406 2.3194-.73798 2.6831-1.4086 2.682-1.4428z"
     fill="#ebeae3"
     fill-rule="evenodd"
     stroke="#000"
     stroke-width=".32597"
     id="path7" />
  <path
     d="m300 223.47-19.286-40.066-44.341 3.3309 25.055-36.735-25.055-36.735 44.341 3.3309 19.286-40.066 19.286 40.066 44.341-3.3309-25.055 36.735 25.055 36.735-44.341-3.3309-19.286 40.066z"
     fill="#fff"
     stroke="#161111"
     id="path9" />
  <path
     d="m299.71 76.392c24.227 3.9935 23.362 5.125 23.362 5.125l6.323-18.903s.66557-3.7273-1.0649-5.9902-6.5893-.99838-6.5893-.99838-.66558-3.0617-2.7954-3.7938c-2.1299-.73214-10.05 2.862-12.513 3.6607-2.4626.7987-3.7273 1.5974-7.1883 1.5308-3.461-.066558-9.6509-3.1282-10.782-3.7273-1.1315-.59902-2.7954-1.198-4.3263-1.1315-1.5308.066559-3.1282.46591-3.9269 1.5308-.7987 1.0649-.7987 2.3961-.7987 2.3961s-1.2646-.7987-3.2614-.7987c-1.9967 0-3.1282.26623-4.0601 1.3312-.9318 1.0649-2.1299 4.06-2.1299 4.06l2.263 5.125.13311 7.0552 4.7256 7.4545 22.63-3.9269z"
     fill="#b02320"
     fill-rule="evenodd"
     stroke="#000"
     stroke-width=".81493"
     id="path11" />
  <path
     d="m322.3 87.072s1.2199 1.4545 1.173 1.9706c-.04692.5161-.56302.98528-.56302.98528s.37536.37534.28151.93836c-.09383.56302-.84452.60994-.84452.60994s.14075.5161-.32843.75069c-.46918.23459-2.3928.65685-2.3928.65685s-9.3836-2.6743-19.424-2.6743c-10.04 0-21.864 3.2374-21.864 3.2374s-1.2199-.42226-1.2668-1.2199c-.0469-.79761.14077-1.3606.14077-1.3606s-.66788.069576-.84453-.5161c-.24707-.81917.09384-1.4545.09384-1.4545s-.46516.14978.04691-.93836c.37534-.79761.93837-1.0791.93837-1.0791s10.51-3.7534 22.474-3.8004c11.964-.046919 22.38 3.8004 22.38 3.8942z"
     fill="#ebeae3"
     fill-rule="evenodd"
     stroke="#000"
     stroke-width=".32597"
     id="path13" />
  <path
     d="m272.64 63.435s-.40066-1.3622.48076-2.5641c.88144-1.2019 2.484-1.1218 2.9648-.88142.48079.24039.40066.8013 1.0417.96156.64103.16026 1.1218-.32052 1.1218-.32052"
     fill="none"
     stroke="#000"
     stroke-width=".71714"
     id="path15" />
  <path
     d="m331.14 66.624-3.6389 7.5287-1.4304.25096s-.87271-.52426-3.3628-.35134c-1.7818.12548-2.3088.5772-2.3088.5772l3.2374-7.5036s.25233 1.6122.62739 2.5598c.47682 1.2046 2.2837 2.3339 2.2837 2.3339s.25039-1.4409-.22585-3.1872c-.52702-1.9324-1.7567-4.5423-1.7567-4.5423l6.5751 2.3339z"
     fill="#fc0"
     fill-opacity=".94118"
     fill-rule="evenodd"
     stroke="#000"
     stroke-width=".74973"
     id="path17" />
  <path
     d="m297.81 43.225h4.073v17.309h-4.073z"
     fill="#121116"
     stroke="#121116"
     stroke-linejoin="round"
     stroke-width=".73115"
     id="path19" />
  <path
     d="m272.85 75.147 2.6157 5.5963s11.132-4.3389 24.271-4.2581c19.709.12166 25.305 4.0756 25.305 4.0756l2.9198-6.9346-2.1899 1.2774-2.2507 1.3991-2.5548.97328-3.1023-.24332-2.7374-2.0074-1.3991-2.9198-2.3115 2.129-4.0756.91245-4.0148-1.0341-3.5281-4.4406s-2.6282 4.936-5.9613 5.2314c-4.8056.42581-7.6037-2.3115-7.6037-2.3115s-1.7865 4.0148-4.7447 4.7447c-4.6839 1.1558-8.577-2.1899-8.6378-2.1899z"
     fill="#f6ca1f"
     fill-rule="evenodd"
     stroke="#000"
     stroke-width=".61935"
     id="path21" />
  <g
     stroke-width="2.243"
     id="g141">
    <path
       d="m317.78 41.028c2.608e-5 1.1759-.93911 2.1298-2.0991 2.1321-1.16.0023372-2.1029-.94779-2.1074-2.1237s.93085-2.1335 2.0908-2.1405c1.16-.0069529 2.1065.93941 2.1156 2.1153"
       fill="#eee"
       stroke="#1e1e1e"
       stroke-linejoin="round"
       stroke-width=".73115"
       id="path23" />
    <path
       d="m314.7 42.123s1.6999-.028816 1.8728-.7203c.17287-.69149-.11525-1.5847-.11525-1.5847s.80673.89317.57624 1.5847c-.2305.69149-.45662.87022-1.0372 1.0084-.3934.093635-.97961-.057622-1.2965-.28812z"
       fill="#a3afb8"
       fill-rule="evenodd"
       id="path25" />
    <path
       d="m312.67 43.418c2.608e-5 1.1759-.93911 2.1298-2.0991 2.1321-1.16.0023372-2.1029-.94779-2.1074-2.1237s.93085-2.1335 2.0908-2.1405c1.16-.0069529 2.1065.93941 2.1156 2.1153"
       fill="#eee"
       stroke="#1e1e1e"
       stroke-linejoin="round"
       stroke-width=".73115"
       id="path27" />
    <path
       d="m309.59 44.513s1.6999-.028816 1.8728-.7203c.17287-.69149-.11525-1.5847-.11525-1.5847s.80673.89317.57624 1.5847c-.2305.69149-.45662.87022-1.0372 1.0084-.3934.093635-.97961-.057622-1.2965-.28812z"
       fill="#a3afb8"
       fill-rule="evenodd"
       id="path29" />
    <path
       d="m323.71 39.628c2.608e-5 1.1759-.93911 2.1298-2.0991 2.1321-1.16.0023372-2.1029-.94779-2.1074-2.1237s.93085-2.1335 2.0908-2.1405c1.16-.0069529 2.1065.93941 2.1156 2.1153"
       fill="#eee"
       stroke="#1e1e1e"
       stroke-linejoin="round"
       stroke-width=".73115"
       id="path31" />
    <path
       d="m320.63 40.723s1.6999-.028816 1.8728-.7203c.17287-.69149-.11525-1.5847-.11525-1.5847s.80673.89317.57624 1.5847c-.2305.69149-.45662.87022-1.0372 1.0084-.3934.093635-.97961-.057622-1.2965-.28812z"
       fill="#a3afb8"
       fill-rule="evenodd"
       id="path33" />
    <path
       d="m330.39 40.973c2.608e-5 1.1759-.93911 2.1298-2.0991 2.1321-1.16.0023372-2.1029-.94779-2.1074-2.1237s.93085-2.1335 2.0908-2.1405c1.16-.0069529 2.1065.93941 2.1156 2.1153"
       fill="#eee"
       stroke="#1e1e1e"
       stroke-linejoin="round"
       stroke-width=".73115"
       id="path35" />
    <path
       d="m327.31 42.068s1.6999-.028816 1.8728-.7203c.17287-.69149-.11525-1.5847-.11525-1.5847s.80673.89317.57624 1.5847c-.2305.69149-.45662.87022-1.0372 1.0084-.3934.093635-.97961-.057622-1.2965-.28812z"
       fill="#a3afb8"
       fill-rule="evenodd"
       id="path37" />
    <path
       d="m335.49 45.169c2.608e-5 1.1759-.93911 2.1298-2.0991 2.1321-1.16.0023372-2.1029-.94779-2.1074-2.1237s.93085-2.1335 2.0908-2.1405c1.16-.0069529 2.1065.93941 2.1156 2.1153"
       fill="#eee"
       stroke="#1e1e1e"
       stroke-linejoin="round"
       stroke-width=".73115"
       id="path39" />
    <path
       d="m332.4 46.264s1.6999-.028816 1.8728-.7203c.17287-.69149-.11525-1.5847-.11525-1.5847s.80673.89317.57624 1.5847c-.2305.69149-.45662.87022-1.0372 1.0084-.3934.093635-.97961-.057622-1.2965-.28812z"
       fill="#a3afb8"
       fill-rule="evenodd"
       id="path41" />
    <path
       d="m337.69 52.056c2.608e-5 1.1759-.93911 2.1298-2.0991 2.1321-1.16.0023372-2.1029-.94779-2.1074-2.1237s.93085-2.1335 2.0908-2.1405c1.16-.0069529 2.1065.93941 2.1156 2.1153"
       fill="#eee"
       stroke="#1e1e1e"
       stroke-linejoin="round"
       stroke-width=".73115"
       id="path43" />
    <path
       d="m334.6 53.151s1.6999-.028816 1.8728-.7203c.17287-.69149-.11525-1.5847-.11525-1.5847s.80673.89317.57624 1.5847c-.2305.69149-.45662.87022-1.0372 1.0084-.3934.093635-.97961-.057622-1.2965-.28812z"
       fill="#a3afb8"
       fill-rule="evenodd"
       id="path45" />
    <path
       d="m336.87 59.023c2.608e-5 1.1759-.93911 2.1298-2.0991 2.1321-1.16.0023372-2.1029-.94779-2.1074-2.1237s.93085-2.1335 2.0908-2.1405c1.16-.0069529 2.1065.93941 2.1156 2.1153"
       fill="#eee"
       stroke="#1e1e1e"
       stroke-linejoin="round"
       stroke-width=".73115"
       id="path47" />
    <path
       d="m333.79 60.118s1.6999-.028816 1.8728-.7203c.17287-.69149-.11525-1.5847-.11525-1.5847s.80673.89317.57624 1.5847c-.2305.69149-.45662.87022-1.0372 1.0084-.3934.093635-.97961-.057622-1.2965-.28812z"
       fill="#a3afb8"
       fill-rule="evenodd"
       id="path49" />
    <path
       d="m333.78 65.135c2.608e-5 1.1759-.93911 2.1298-2.0991 2.1321-1.16.0023372-2.1029-.94779-2.1074-2.1237s.93085-2.1335 2.0908-2.1405c1.16-.0069529 2.1065.93941 2.1156 2.1153"
       fill="#eee"
       stroke="#1e1e1e"
       stroke-linejoin="round"
       stroke-width=".73115"
       id="path51" />
    <path
       d="m330.69 66.23s1.6999-.028816 1.8728-.7203c.17287-.69149-.11525-1.5847-.11525-1.5847s.80673.89317.57624 1.5847c-.2305.69149-.45662.87022-1.0372 1.0084-.3934.093635-.97961-.057622-1.2965-.28812z"
       fill="#a3afb8"
       fill-rule="evenodd"
       id="path53" />
    <path
       d="m307.7 45.251c2.608e-5 1.1759-.93911 2.1298-2.0991 2.1321-1.16.0023372-2.1029-.94779-2.1074-2.1237s.93085-2.1335 2.0908-2.1405c1.16-.0069529 2.1065.93941 2.1156 2.1153"
       fill="#eee"
       stroke="#1e1e1e"
       stroke-linejoin="round"
       stroke-width=".73115"
       id="path55" />
    <path
       d="m304.61 46.346s1.6999-.028816 1.8728-.7203c.17287-.69149-.11525-1.5847-.11525-1.5847s.80673.89317.57624 1.5847c-.2305.69149-.45662.87022-1.0372 1.0084-.3934.093635-.97961-.057622-1.2965-.28812z"
       fill="#a3afb8"
       fill-rule="evenodd"
       id="path57" />
    <g
       stroke-width="2.6822"
       id="g63">
      <path
         d="m301.35 44.707c2.181e-5.98336-.78535 1.7811-1.7554 1.783-.97007.0019545-1.7586-.79261-1.7624-1.776-.00383-.98335.77844-1.7842 1.7485-1.79.97006-.0058146 1.7616.7856 1.7693 1.7689"
         fill="#eee"
         stroke="#1e1e1e"
         stroke-linejoin="round"
         stroke-width=".73116"
         id="path59" />
      <path
         d="m298.77 45.622s1.4216-.024098 1.5662-.60237c.14457-.57827-.096378-1.3252-.096378-1.3252s.67465.74693.48189 1.3252c-.19276.57827-.38186.72774-.86741.84331-.32899.078304-.81922-.048188-1.0843-.24095z"
         fill="#a3afb8"
         fill-rule="evenodd"
         id="path61" />
    </g>
    <g
       stroke-width="2.6822"
       id="g69">
      <path
         d="m301.37 46.923c2.181e-5.98336-.78535 1.7811-1.7554 1.783-.97007.0019545-1.7586-.79261-1.7624-1.776-.00383-.98335.77844-1.7842 1.7485-1.79.97006-.0058146 1.7616.7856 1.7693 1.7689"
         fill="#eee"
         stroke="#1e1e1e"
         stroke-linejoin="round"
         stroke-width=".73116"
         id="path65" />
      <path
         d="m298.79 47.838s1.4216-.024098 1.5662-.60237c.14457-.57827-.096378-1.3252-.096378-1.3252s.67465.74693.48189 1.3252c-.19276.57827-.38186.72774-.86741.84331-.32899.078304-.81922-.048188-1.0843-.24095z"
         fill="#a3afb8"
         fill-rule="evenodd"
         id="path67" />
    </g>
    <g
       stroke-width="2.6822"
       id="g75">
      <path
         d="m301.49 50.183c2.181e-5.98336-.78535 1.7811-1.7554 1.783-.97007.0019545-1.7586-.79261-1.7624-1.776-.00383-.98335.77844-1.7842 1.7485-1.79.97006-.0058146 1.7616.7856 1.7693 1.7689"
         fill="#eee"
         stroke="#1e1e1e"
         stroke-linejoin="round"
         stroke-width=".73116"
         id="path71" />
      <path
         d="m298.91 51.098s1.4216-.024098 1.5662-.60237c.14457-.57827-.096378-1.3252-.096378-1.3252s.67465.74693.48189 1.3252c-.19276.57827-.38186.72774-.86741.84331-.32899.078304-.81922-.048188-1.0843-.24095z"
         fill="#a3afb8"
         fill-rule="evenodd"
         id="path73" />
    </g>
    <g
       stroke-width="2.4802"
       id="g81">
      <path
         d="m301.67 53.645c2.358e-5 1.0634-.84931 1.9261-1.8984 1.9282-1.0491.0021137-1.9018-.85716-1.9059-1.9206-.0041419-1.0634.84184-1.9295 1.8909-1.9358 1.0491-.0062881 1.9051.84958 1.9133 1.913"
         fill="#eee"
         stroke="#1e1e1e"
         stroke-linejoin="round"
         stroke-width=".73115"
         id="path77" />
      <path
         d="m298.88 54.635s1.5374-.02606 1.6937-.65143c.15634-.62537-.10423-1.4331-.10423-1.4331s.72959.80776.52114 1.4331c-.20846.62537-.41295.78701-.93805.91199-.35579.084681-.88593-.052112-1.1726-.26057z"
         fill="#a3afb8"
         fill-rule="evenodd"
         id="path79" />
    </g>
    <path
       d="m301.87 58.29c2.608e-5 1.1759-.93911 2.1298-2.0991 2.1321-1.16.0023372-2.1029-.94779-2.1074-2.1237s.93085-2.1335 2.0908-2.1405c1.16-.0069529 2.1065.93941 2.1156 2.1153"
       fill="#eee"
       stroke="#1e1e1e"
       stroke-linejoin="round"
       stroke-width=".73115"
       id="path83" />
    <path
       d="m298.79 59.385s1.6999-.028816 1.8728-.7203c.17287-.69149-.11525-1.5847-.11525-1.5847s.80673.89317.57624 1.5847c-.2305.69149-.45662.87022-1.0372 1.0084-.3934.093635-.97961-.057622-1.2965-.28812z"
       fill="#a3afb8"
       fill-rule="evenodd"
       id="path85" />
    <g
       stroke-width="2.3883"
       id="g91">
      <path
         d="m301.66 67.824c2.449e-5 1.1044-.88198 2.0002-1.9714 2.0024-1.0894.002195-1.9749-.89013-1.9792-1.9945-.0043013-1.1043.87422-2.0037 1.9636-2.0102 1.0894-.00653 1.9784.88226 1.9869 1.9866"
         fill="#eee"
         stroke="#1e1e1e"
         stroke-linejoin="round"
         stroke-width=".73116"
         id="path87" />
      <path
         d="m298.77 68.852s1.5965-.027063 1.7588-.67648-.10824-1.4883-.10824-1.4883.75766.83884.54119 1.4883c-.21647.64942-.42884.81728-.97413.94707-.36947.087939-.92001-.054116-1.2177-.27059z"
         fill="#a3afb8"
         fill-rule="evenodd"
         id="path89" />
    </g>
    <path
       d="m295.97 45.194c2.608e-5 1.1759-.93911 2.1298-2.0991 2.1321-1.16.0023372-2.1029-.94779-2.1074-2.1237s.93085-2.1335 2.0908-2.1405c1.16-.0069529 2.1065.93941 2.1156 2.1153"
       fill="#eee"
       stroke="#1e1e1e"
       stroke-linejoin="round"
       stroke-width=".73115"
       id="path93" />
    <path
       d="m292.89 46.289s1.6999-.028816 1.8728-.7203c.17287-.69149-.11525-1.5847-.11525-1.5847s.80673.89317.57624 1.5847c-.2305.69149-.45662.87022-1.0372 1.0084-.3934.093635-.97961-.057622-1.2965-.28812z"
       fill="#a3afb8"
       fill-rule="evenodd"
       id="path95" />
    <path
       d="m290.75 43.138c2.608e-5 1.1759-.93911 2.1298-2.0991 2.1321-1.16.0023372-2.1029-.94779-2.1074-2.1237s.93085-2.1335 2.0908-2.1405c1.16-.0069529 2.1065.93941 2.1156 2.1153"
       fill="#eee"
       stroke="#1e1e1e"
       stroke-linejoin="round"
       stroke-width=".73115"
       id="path97" />
    <path
       d="m287.67 44.233s1.6999-.028816 1.8728-.7203c.17287-.69149-.11525-1.5847-.11525-1.5847s.80673.89317.57624 1.5847c-.2305.69149-.45662.87022-1.0372 1.0084-.3934.093635-.97961-.057622-1.2965-.28812z"
       fill="#a3afb8"
       fill-rule="evenodd"
       id="path99" />
    <path
       d="m285.76 40.788c2.608e-5 1.1759-.93911 2.1298-2.0991 2.1321-1.16.0023372-2.1029-.94779-2.1074-2.1237s.93085-2.1335 2.0908-2.1405c1.16-.0069529 2.1065.93941 2.1156 2.1153"
       fill="#eee"
       stroke="#1e1e1e"
       stroke-linejoin="round"
       stroke-width=".73115"
       id="path101" />
    <path
       d="m282.68 41.883s1.6999-.028816 1.8728-.7203c.17287-.69149-.11525-1.5847-.11525-1.5847s.80673.89317.57624 1.5847c-.2305.69149-.45662.87022-1.0372 1.0084-.3934.093635-.97961-.057622-1.2965-.28812z"
       fill="#a3afb8"
       fill-rule="evenodd"
       id="path103" />
    <path
       d="m280.03 39.539c2.608e-5 1.1759-.93911 2.1298-2.0991 2.1321-1.16.0023372-2.1029-.94779-2.1074-2.1237s.93085-2.1335 2.0908-2.1405c1.16-.0069529 2.1065.93941 2.1156 2.1153"
       fill="#eee"
       stroke="#1e1e1e"
       stroke-linejoin="round"
       stroke-width=".73115"
       id="path105" />
    <path
       d="m276.95 40.634s1.6999-.028816 1.8728-.7203c.17287-.69149-.11525-1.5847-.11525-1.5847s.80673.89317.57624 1.5847c-.2305.69149-.45662.87022-1.0372 1.0084-.3934.093635-.97961-.057622-1.2965-.28812z"
       fill="#a3afb8"
       fill-rule="evenodd"
       id="path107" />
    <path
       d="m273.27 41.155c2.608e-5 1.1759-.93911 2.1298-2.0991 2.1321-1.16.0023372-2.1029-.94779-2.1074-2.1237s.93085-2.1335 2.0908-2.1405c1.16-.0069529 2.1065.93941 2.1156 2.1153"
       fill="#eee"
       stroke="#1e1e1e"
       stroke-linejoin="round"
       stroke-width=".73115"
       id="path109" />
    <path
       d="m270.19 42.25s1.6999-.028816 1.8728-.7203c.17287-.69149-.11525-1.5847-.11525-1.5847s.80673.89317.57624 1.5847c-.2305.69149-.45662.87022-1.0372 1.0084-.3934.093635-.97961-.057622-1.2965-.28812z"
       fill="#a3afb8"
       fill-rule="evenodd"
       id="path111" />
    <path
       d="m268.5 45.928c2.608e-5 1.1759-.93911 2.1298-2.0991 2.1321-1.16.0023372-2.1029-.94779-2.1074-2.1237s.93085-2.1335 2.0908-2.1405c1.16-.0069529 2.1065.93941 2.1156 2.1153"
       fill="#eee"
       stroke="#1e1e1e"
       stroke-linejoin="round"
       stroke-width=".73115"
       id="path113" />
    <path
       d="m265.42 47.023s1.6999-.028816 1.8728-.7203c.17287-.69149-.11525-1.5847-.11525-1.5847s.80673.89317.57624 1.5847c-.2305.69149-.45662.87022-1.0372 1.0084-.3934.093635-.97961-.057622-1.2965-.28812z"
       fill="#a3afb8"
       fill-rule="evenodd"
       id="path115" />
    <path
       d="m266.52 52.612c2.608e-5 1.1759-.93911 2.1298-2.0991 2.1321-1.16.0023372-2.1029-.94779-2.1074-2.1237s.93085-2.1335 2.0908-2.1405c1.16-.0069529 2.1065.93941 2.1156 2.1153"
       fill="#eee"
       stroke="#1e1e1e"
       stroke-linejoin="round"
       stroke-width=".73115"
       id="path117" />
    <path
       d="m263.43 53.707s1.6999-.028816 1.8728-.7203c.17287-.69149-.11525-1.5847-.11525-1.5847s.80673.89317.57624 1.5847c-.2305.69149-.45662.87022-1.0372 1.0084-.3934.093635-.97961-.057622-1.2965-.28812z"
       fill="#a3afb8"
       fill-rule="evenodd"
       id="path119" />
    <path
       d="m267.4 59.59c2.608e-5 1.1759-.93911 2.1298-2.0991 2.1321-1.16.0023372-2.1029-.94779-2.1074-2.1237s.93085-2.1335 2.0908-2.1405c1.16-.0069529 2.1065.93941 2.1156 2.1153"
       fill="#eee"
       stroke="#1e1e1e"
       stroke-linejoin="round"
       stroke-width=".73115"
       id="path121" />
    <path
       d="m264.32 60.685s1.6999-.028816 1.8728-.7203c.17287-.69149-.11525-1.5847-.11525-1.5847s.80673.89317.57624 1.5847c-.2305.69149-.45662.87022-1.0372 1.0084-.3934.093635-.97961-.057622-1.2965-.28812z"
       fill="#a3afb8"
       fill-rule="evenodd"
       id="path123" />
    <path
       d="m270.63 65.906c2.608e-5 1.1759-.93911 2.1298-2.0991 2.1321-1.16.0023372-2.1029-.94779-2.1074-2.1237s.93085-2.1335 2.0908-2.1405c1.16-.0069529 2.1065.93941 2.1156 2.1153"
       fill="#eee"
       stroke="#1e1e1e"
       stroke-linejoin="round"
       stroke-width=".73115"
       id="path125" />
    <path
       d="m267.55 67.001s1.6999-.028816 1.8728-.7203c.17287-.69149-.11525-1.5847-.11525-1.5847s.80673.89317.57624 1.5847c-.2305.69149-.45662.87022-1.0372 1.0084-.3934.093635-.97961-.057622-1.2965-.28812z"
       fill="#a3afb8"
       fill-rule="evenodd"
       id="path127" />
    <g
       stroke-width="2.8322"
       id="g133">
      <path
         transform="matrix(.19748 -.05291 .08437 .31486 168.37 18.75)"
         d="m430.63 247.41c8e-5 3.6073-2.881 6.5337-6.4395 6.5409-3.5586.00717-6.4511-2.9076-6.4651-6.5149s2.8556-6.5451 6.4142-6.5664c3.5585-.02133 6.4623 2.8819 6.4903 6.4891"
         fill="#eee"
         stroke="#1e1e1e"
         stroke-linejoin="round"
         id="path129" />
      <path
         d="m272.7 75.423s1.0224-.30375.94814-.99973c-.074246-.69598-.47997-1.5119-.47997-1.5119s.71991.73178.75925 1.4371c.039336.70533-.051391.91468-.36737 1.1424-.2141.1543-.60838.10335-.86004-.067851z"
         fill="#a3afb8"
         fill-rule="evenodd"
         id="path131" />
    </g>
    <g
       stroke-width="2.8322"
       id="g139">
      <path
         transform="matrix(.19849 .049 -.07812 .31647 262.46 -25.127)"
         d="m430.63 247.41c8e-5 3.6073-2.881 6.5337-6.4395 6.5409-3.5586.00717-6.4511-2.9076-6.4651-6.5149s2.8556-6.5451 6.4142-6.5664c3.5585-.02133 6.4623 2.8819 6.4903 6.4891"
         fill="#eee"
         stroke="#1e1e1e"
         stroke-linejoin="round"
         id="path135" />
      <path
         d="m326.47 74.871s1.042.22755 1.313-.41779.30959-1.5558.30959-1.5558.27719.98841-.028885 1.6251c-.30607.63669-.48659.77622-.87326.82311-.26199.031769-.58269-.2032-.72044-.47462z"
         fill="#a3afb8"
         fill-rule="evenodd"
         id="path137" />
    </g>
  </g>
  <path
     d="m297.95 33.632.15157 3.5619s-4.2229.37086-4.3955.75785c-.82047 1.8389.9852 4.3197.9852 4.3197s1.4198-1.061 5.0018-1.061c3.4103-2e-6 5.1534.83363 5.1534.83363s.90942-1.4399.90942-2.5009c0-1.061-.37892-2.122-.37892-2.122s-1.743-.22736-2.2735-.22736h-1.5157l-.15156-3.6377-3.4861.075785z"
     fill="#b3a192"
     fill-rule="evenodd"
     stroke="#000"
     stroke-width=".73115"
     id="path143" />
  <path
     d="m303.97 39.158c7e-5.39944-.33732.72354-.75414.7244-.41682.00086-.75566-.32184-.75737-.72129-.0017-.39945.33435-.7248.75116-.72723.41681-.002424.75698.319.76033.71844m1.7407.39357c7e-5.41682-.35201.75502-.78695.75591-.43495.000897-.78854-.33585-.79032-.75267-.00179-.41682.3489-.75634.78384-.75887.43495-.002529.78991.33288.79341.74969m-3.4837-.4096c8e-5.39944-.33733.72354-.75413.7244-.41682.000859-.75567-.32185-.75739-.72129-.0017-.39945.33436-.7248.75116-.72723.41682-.002426.75698.319.76033.71844m-3.4932.044861c8e-5.41569-.35103.75296-.7848.75385-.43376.000896-.78639-.33493-.78817-.75062-.00178-.41569.34795-.75428.78171-.7568.43375-.002525.78775.33197.79123.74765m-1.939.13529c8e-5.41569-.35104.75296-.78481.75386-.43376.000894-.78639-.33493-.78817-.75062-.00178-.41569.34795-.75428.78171-.7568.43376-.002524.78775.33197.79124.74765m3.5592-2.1748c7e-5.35072-.29616.63528-.66214.63603-.36596.000753-.66347-.28258-.66498-.6333-.00149-.35072.29358-.63638.65954-.63852.36596-.002129.66462.28008.66756.63079m2e-5-2.9506c7e-5.35072-.29616.63528-.66214.63603-.36596.000754-.66348-.28258-.66498-.6333-.00149-.35072.29358-.63638.65953-.63852.36596-.002128.66463.28008.66757.63079m2e-5 1.5965c7e-5.35072-.29616.63528-.66214.63603-.36596.000753-.66347-.28258-.66498-.6333-.00149-.35072.29358-.63638.65954-.63851.36596-.002128.66462.28009.66756.63079"
     fill="#f0ddcb"
     stroke="#121116"
     stroke-linejoin="round"
     stroke-width=".37259"
     id="path145" />
  <path
     d="m294.83 39.827c8e-5.40115-.33875.72663-.75735.72749-.41859.000863-.75888-.32322-.7606-.72436-.00173-.40115.33578-.7279.75437-.73034.41858-.002434.7602.32036.76356.7215"
     fill="#f0ddcb"
     stroke="#121116"
     stroke-linejoin="round"
     stroke-width=".37259"
     id="path147" />
  <path
     d="m300.53 38.975c4e-5.43887-.37217.7949-.83194.79579-.45977.000887-.83349-.35371-.83532-.79257s.36893-.79629.82867-.7989c.45977-.002608.83493.35058.83857.78943"
     fill="#916c68"
     stroke="#4d3126"
     stroke-linejoin="round"
     stroke-width=".37259"
     id="path149" />
  <g
     stroke-width="2.5345"
     id="g155">
    <path
       d="m301.29 28.407c1.93e-5.87027-.69503 1.5763-1.5535 1.578-.85851.0017298-1.5563-.70146-1.5597-1.5717-.0033896-.87026.68892-1.579 1.5474-1.5842.8585-.0051459 1.559.69526 1.5658 1.5655"
       fill="#eee"
       stroke="#1e1e1e"
       stroke-linejoin="round"
       stroke-width=".73116"
       id="path151" />
    <path
       d="m299.01 29.216s1.2581-.021324 1.386-.53308c.12794-.51176-.085292-1.1728-.085292-1.1728s.59705.66102.42646 1.1728c-.17058.51175-.33793.64403-.76764.74631-.29115.069299-.72499-.042643-.95954-.21323z"
       fill="#a3afb8"
       fill-rule="evenodd"
       id="path153" />
  </g>
  <path
     d="m274.98 81.335s1.3888 1.2962 1.7592 2.4536c.37037 1.1574.9259 4.2591.9259 4.2591s14.536-4.0276 21.666-3.7036c7.1294.32406 23.564 3.935 23.564 3.935s.27778-1.7592.60183-3.611c.32407-1.8518 1.6666-3.8887 1.6666-3.8887s-15.694-4.9072-25.601-4.4443c-9.907.46294-14.861 1.5277-17.083 2.2221-2.2221.69442-7.6386 2.824-7.4997 2.7777z"
     fill="#fc0"
     fill-rule="evenodd"
     stroke="#000"
     stroke-width=".32597"
     id="path157" />
  <path
     d="m296.66 22.53h6.2522s-1.5427 1.0674-1.8567 2.0841c-.27022.87494-.18946 2.3114-.18946 2.3114s1.7052 0 2.463-.64417c.75785-.64417 2.3493-1.7809 2.3493-1.7809v7.9574s-1.5345-1.4839-2.463-1.9704c-1.1154-.58438-2.2357-.79574-2.2357-.79574s0 1.2883.53049 2.0462c.5305.75785 2.6525 3.6377 2.6525 3.6377l-8.9426.34104s2.1211-2.2366 2.9935-3.865c.56839-1.061.34102-2.1599.34102-2.1599s-1.5157 0-2.2735.5305c-.75785.53049-2.0841 2.122-2.0841 2.122l1e-5-7.6543s.56837 1.4778 1.8188 2.0462 2.4251.26525 2.4251.26525.24262-1.523-.26526-2.463c-.52361-.96908-1.6294-2.0462-1.5157-2.0083z"
     fill="#fc0"
     fill-rule="evenodd"
     stroke="#000"
     stroke-width=".73115"
     id="path159" />
  <path
     d="m296.17 47.78s-4.4478-.053586-8.2526-2.3043c-3.8048-2.2507-7.6422-4.608-13.29-3.2689-1.1566.27423-5.4124 2.1435-7.288 8.199-1.316 4.249.21436 9.3779 1.5541 11.682 1.3397 2.3043 3.5 4.6399 3.5 4.6399l2.2976-1.5563s-5.8512-4.9592-5.1546-11.39c.69664-6.4306 3.9119-7.931 3.9119-7.931s3.9655-3.1081 9.2707-.16077c5.3052 2.9473 10.503 4.287 10.503 4.287s4.8765 1.1789 5.3052 1.1253c.4287-.053592-2.465-3.376-2.3579-3.3225z"
     fill="#fc0"
     fill-rule="evenodd"
     stroke="#121116"
     stroke-width=".73115"
     id="path161" />
  <path
     d="m271.57 71.9-2.3633-4.6451 7.0899-2.7708s-1.7114 2.2818-2.1188 3.9117c-.49766 1.9907-.32597 3.6672-.32597 3.6672s.65194-.48896 1.4669-1.7928c.6184-.98944 1.6299-4.5636 1.6299-4.5636l3.1782 10.187c.02454.027273-1.6338-1.6338-2.7998-1.831-1.3144-.22232-2.9047.20116-2.9047.20116l-1.8743.57045-.97791-2.9337z"
     fill="#fc0"
     fill-rule="evenodd"
     stroke="#000"
     stroke-width=".74973"
     id="path163" />
  <path
     d="m304.19 47.696s4.4478-.053585 8.2526-2.3043c3.8048-2.2507 7.6422-4.608 13.29-3.2689 1.1566.27423 5.4124 2.1435 7.288 8.199 1.3161 4.249-.21434 9.3779-1.554 11.682-1.3397 2.3043-2.2509 3.6598-2.2509 3.6598l-2.7615-.99176s5.066-4.5437 4.3693-10.974c-.69663-6.4306-3.9119-7.931-3.9119-7.931s-3.9655-3.1081-9.2707-.16076c-5.3052 2.9473-10.503 4.287-10.503 4.287s-4.8765 1.1789-5.3052 1.1253c-.42871-.05359 2.465-3.376 2.3579-3.3225z"
     fill="#fc0"
     fill-rule="evenodd"
     stroke="#121116"
     stroke-width=".73115"
     id="path165" />
  <path
     d="m301.89 43.295h1.857v17.317h-1.857zm-6.252-.076h2.198v17.317h-2.198z"
     fill="#fc0"
     stroke="#121116"
     stroke-linejoin="round"
     stroke-width=".73115"
     id="path167" />
  <path
     d="m305.76 39.202c.00016 3.0721-2.7069 5.5643-6.0506 5.5704-3.3437.006172-6.0616-2.476-6.0749-5.5481-.01327-3.072 2.6831-5.574 6.0268-5.5922 3.3437-.018231 6.0722 2.4541 6.0986 5.5261"
     fill="#fc0"
     stroke="#121116"
     stroke-linejoin="round"
     stroke-width=".73115"
     id="path169" />
  <path
     d="m294.32 60.467 10.426-.085811s-1.2228.72939-2.274 2.5958c-1.0512 1.8664-.901 3.0463-.901 3.0463s1.5875-.021451 2.703-.83665c1.1155-.81519 2.3598-2.3383 2.3598-2.3383l-.0429 9.6107s-.75084-1.2228-1.9951-1.9522c-1.2442-.72939-3.0034-.72939-3.0034-.72939h-3.5611s-1.6284.096223-2.3598.57922c-1.0317.68131-2.3169 1.9951-2.3169 1.9951l-.17162-9.0744s.51486 1.5875 2.1882 2.2311c1.6733.64357 2.6172.55776 2.6172.55776s0-2.038-.8581-3.0892c-.8581-1.0512-2.8103-2.467-2.8103-2.5099z"
     fill="#fc0"
     fill-rule="evenodd"
     stroke="#000"
     stroke-width=".61935"
     id="path171" />
  <path
     d="m300.13 68.013s1.5254 3.5594 3.2992 5.1303c1.0325.91443 4.1368 1.6032 5.5402 1.2449 3.154-.80527 5.3216-3.3287 5.3216-3.3287s-.11284 2.7645 1.8618 4.2878c1.9746 1.5233 3.5543 1.9182 5.1905 1.4669 1.6361-.45134 6.2624-3.8928 6.2624-3.8928l.95911.84627s-2.6533 2.5766-5.4419 3.9444c-1.4358.70423-5.7939.31273-7.2043-.81563-1.4104-1.1284-2.2481-3.8622-2.2481-3.8622s-.86832 1.7576-2.7301 2.3782c-1.8618.6206-4.4204.59369-6.796-.10051-1.5991-.46731-3.6758-2.6726-4.0707-3.406-.39491-.73344-.28209-1.1284-.28209-1.1284s-1.1716 3.3582-3.6108 4.2743c-2.3034.86518-4.9293.87205-7.1602.23053-2.2552-.6485-2.4308-1.9096-2.4308-1.9096s-.16925 3.5543-5.0776 4.5699c-4.9084 1.0155-8.8012-2.5952-8.8012-2.5952l.67702-1.0155s2.7645 3.103 6.9958 2.8209c4.2314-.28209 5.6418-5.6982 5.6418-5.6982s1.8618 2.8209 6.8266 2.8773c4.9648.056421 6.3752-6.4317 6.3752-6.4317l.9027.11283z"
     fill="#f6ca1f"
     fill-rule="evenodd"
     stroke="#000"
     stroke-width=".58675"
     id="path173" />
  <g
     fill="#fc0"
     stroke="#000"
     stroke-width=".71713"
     id="g183">
    <path
       d="m287.89 70.083s.037161-1.7279.40856-2.2471c.52669-.7363 1.2432-.76637 1.6087-.66392.45097.1264.91926.53624.84266 1.7364-.076606 1.2002-.40856 1.7875-.051073 2.2471.35749.45963.40856.76606 1.098.66392.68945-.10214.99587-.33196.84266-.97034-.15321-.63838-.35749.05107-.48517-.48517-.12768-.53624.6669-2.8527.53624-4.2899-.12768-1.4044-.66392-2.528-1.7364-2.8089-1.008-.26399-1.8641-.25536-2.8089.4341-.90619.66127-2.0684 2.8344-2.0684 2.8344l-.025536 4.6474 1.8896-.10214-.05107-.99587z"
       fill-rule="evenodd"
       id="path175" />
    <path
       d="m284.37 71.334s-.72277-1.5699-1.2703-1.8981c-.77652-.46537-1.4456-.20736-1.74.032287-.36323.29567-.62936.8582-.080759 1.9284.5486 1.0702 1.0871 1.4765.94247 2.0405-.14467.56404-.069379.86542-.74241 1.0465-.67303.18112-1.0457.092474-1.1596-.55407-.11392-.64655.34823-.095653.25159-.63834-.096631-.54269-1.7486-2.3505-2.2016-3.7207-.44267-1.339-.39868-2.5831.47298-3.2682.81921-.64385 1.6078-.97716 2.7491-.72141 1.0947.2453 3.0267 1.7752 3.0267 1.7752l1.8757 4.2521-1.7737.65946-.35009-.93371z"
       fill-rule="evenodd"
       id="path177" />
    <path
       d="m284.01 57.571s-1.8385 3.0898-1.43 5.4645c.40856 2.3748 2.8599 7.4818 2.8599 7.4818l.025536.68945 1.3227-.143-.30131-.69967s.66065-6.1136.25535-8.0436c-.30127-1.4346-2.7067-4.724-2.7323-4.7496zm2.9366 14.147s.91866 1.0992 2.0173 1.6343c1.2002.58446 1.6935.58827 2.1705.22982.34948-.26263.22982-1.3789-.17875-1.6853-.40856-.30642-.87208-.15071-.94481.15321-.12279.51314-.2902.47896-.66391.28089-.5457-.28923-1.813-1.0725-1.813-1.0725l-.58731.45963zm-1.4231.24954s-.38668 1.3794-1.169 2.3181c-.85462 1.0255-1.303 1.2314-1.885 1.1002-.42646-.096096-.7754-1.1632-.52857-1.6102.24684-.44709.73343-.49529.92447-.24798.32255.41756.46118.3177.72071-.016285.37895-.48768 1.2132-1.722 1.2132-1.722l.72419.17815z"
       fill-rule="evenodd"
       id="path179" />
    <path
       d="m288.99 70.863c.067501.40279-1.1484.94269-2.7177 1.2068-1.5693.26406-2.8995.15258-2.9732-.24918-.073664-.40176 1.137-.94209 2.7061-1.2077 1.569-.26564 2.904-.15628 2.9838.24444"
       stroke-linejoin="round"
       id="path181" />
  </g>
  <g
     fill="#fc0"
     stroke="#000"
     stroke-width=".71713"
     id="g193">
    <path
       d="m316.01 70.779s.64071-1.6051 1.1706-1.9611c.75144-.50486 1.433-.28176 1.7394-.057636.37801.27652.67285.82454.18026 1.9216-.49259 1.0971-1.0094 1.5307-.83581 2.0865.17362.55581.11399.86068.79548 1.0068.68149.14611 1.049.038338 1.1294-.61323.080374-.65157-.3527-.077534-.28423-.62449.068472-.54696 1.6249-2.4377 2.0065-3.8295.37292-1.36.26472-2.6003-.64116-3.2394-.85138-.60068-1.6562-.89281-2.7827-.57844-1.0805.30151-2.9309 1.9291-2.9309 1.9291l-1.6536 4.3433 1.8054.56696.30139-.95054z"
       fill-rule="evenodd"
       id="path185" />
    <path
       d="m312.28 70.716s-.12636-1.7237-.52409-2.223c-.56402-.70812-1.2811-.70113-1.6409-.57993-.44384.14953-.89034.58301-.75184 1.7776.1385 1.1946.50035 1.764.16707 2.2415-.33327.47749-.36845.78614-1.0623.71975-.69381-.06639-1.0117-.28007-.89166-.92551.12003-.64545.35966.032532.45946-.50958.099809-.54212-.81336-2.8145-.75712-4.2565.054962-1.4092.53245-2.5589 1.589-2.8948.99297-.3157 1.8484-.3513 2.8275.28843.93913.61358 2.212 2.7238 2.212 2.7238l.26556 4.6399-1.8924-.0044005-.00044041-.99718z"
       fill-rule="evenodd"
       id="path187" />
    <path
       d="m316.77 57.7s-2.8053 2.2489-3.2554 4.6161c-.45013 2.3672.054727 8.0096.054727 8.0096l-.21785.65462 1.2889.32992-.036832-.7609s2.7625-5.4938 3.0597-7.4433c.22091-1.4491-.87831-5.3732-.89327-5.4061zm-2.2106 14.278s.47486 1.3516 1.3161 2.2379c.919.9682 1.3797 1.1448 1.9521.97634.41938-.12341.69876-1.2108.42359-1.641-.27517-.43023-.76385-.44694-.93854-.18783-.29494.4375-.43973.34678-.72025.030241-.40963-.46222-1.3218-1.6401-1.3218-1.6401l-.71119.2245zm-1.4203-.26535s-.84584 1.1562-1.9077 1.761c-1.1599.66066-1.652.69629-2.1511.36936-.36569-.23954-.31829-1.3612.069654-1.6933.38795-.33214.86054-.20665.95272.09194.15564.50415.32049.45924.68065.23748.5259-.32383 1.74-1.1872 1.74-1.1872l.61574.42079z"
       fill-rule="evenodd"
       id="path189" />
    <path
       d="m316.79 71.906c-.078017.40089-1.406.48017-2.9683.17721-1.5623-.30297-2.7689-.87378-2.6971-1.2759.071882-.40208 1.3952-.48361 2.9577-.18222 1.5626.30138 2.7744.87188 2.7087 1.2751"
       stroke-linejoin="round"
       id="path191" />
  </g>
  <path
     d="m274.43 81.169s.30416 1.2774 1.0341.6083c.72997-.66913 10.767-4.6231 24.94-4.6231 14.173 0 23.48 3.8931 24.028 4.1364.54747.24332.79079.54747 1.2774 0 .48664-.54747-.48664-1.3991-.48664-1.3991s-9.8544-4.1973-25.244-4.1364c-15.39.060829-25.366 4.4406-25.366 4.4406s-.66913.48664-.18249.97328z"
     fill="#cca715"
     fill-rule="evenodd"
     stroke="#000"
     stroke-width=".32597"
     id="path195" />
  <path
     d="m292.4 87.065s.45212-1.257 1.2418-1.499c.62962-.1929 1.6239.42618 1.6239.42618s-1.1977-.11022-1.5725.10287c-.33854.1925-.44087.76418-.44087.76418s.25717-.45557 1.1757-.41148c.91848.044086 1.0214.044086 1.0214.044086s-1.5578.11757-1.9178.56579c-.36004.44822 1.4696.65396 1.4696.65396s-2.7996.014694-3.167-.15431c-.36739-.169-.60251-.74214-1.2271-.56579-.62459.17635-1.2639.73479-1.2639.73479s.71276-1.1977 1.161-1.2051c.44823-.007348.71274-.029394 1.1169.1543s.77888.38944.77888.38944zm-10.468 2.2676s.21188-1.319.94322-1.7027c.58309-.30599 1.6747.11856 1.6747.11856s-1.1974.11314-1.5263.39185c-.29711.25178-.29197.83253-.29197.83253s.1685-.49527 1.0793-.62178c.91081-.1265 1.0119-.14552 1.0119-.14552s-1.5092.40358-1.7801.91064c-.27096.50707 1.5652.37096 1.5652.37096s-2.7486.53209-3.1409.43394c-.39231-.098157-.72937-.61794-1.3106-.32914-.5812.2888-1.1062.95581-1.1062.95581s.47901-1.3088.91814-1.3989c.43914-.090097.69502-.16067 1.1262-.05487.43114.1058.83746.23871.83746.23871zm19.297-2.7323s.52419-1.2287 1.3266-1.4245c.63975-.1561 1.5965.51954 1.5965.51954s-1.1893-.17942-1.5758.011598c-.34912.17257-.48441.73736-.48441.73736s.28313-.43991 1.1975-.34268c.91438.097223 1.0171.10319 1.0171.10319s-1.562.027119-1.9474.45373c-.38541.42661 1.4292.73801 1.4292.73801s-2.7957-.14752-3.1527-.33752c-.35699-.19-.55853-.7758-1.1923-.63593-.63375.13987-1.3043.66034-1.3043.66034s.78095-1.1544 1.2288-1.1358c.44789.018634.71325.011951 1.1061.21875s.755.43391.755.43391zm8.8396.99995s.66398-1.1592 1.4837-1.26c.65358-.080379 1.5249.70228 1.5249.70228s-1.1603-.31697-1.5664-.17235c-.36686.13065-.56713.6758-.56713.6758s.33254-.40386 1.2293-.2006c.89681.20326.99811.22116.99811.22116s-1.5544-.15532-1.987.2234c-.43256.37872 1.3333.89974 1.3333.89974s-2.7594-.47274-3.0918-.7031c-.33237-.23036-.46418-.83567-1.1099-.77071-.64575.064966-1.3724.50363-1.3724.50363s.91032-1.0554 1.353-.98463c.44265.070773.70697.095097 1.073.34632.36599.25123.69921.51905.69921.51905zm8.7777 1.567s.61848-.88285 1.2846-.9038c.53109-.016708 1.174.67605 1.174.67605s-.90912-.33971-1.2461-.25325c-.30437.078111-.50524.50151-.50524.50151s.2968-.30018 1.0026-.071144c.70574.22903.78584.25084.78584.25084s-1.2377-.23869-1.6131.033956c-.37532.27265 1.0056.82068 1.0056.82068s-2.1828-.58202-2.433-.79149c-.25022-.20946-.31178-.70553-.83543-.70063-.52365.004903-1.1398.30416-1.1398.30416s.80883-.78139 1.1594-.6921c.35053.089292.56114.1282.83685.35689.27569.22869.52385.46832.52385.46832z"
     fill-rule="evenodd"
     id="path197" />
  <path
     d="m290.64 81.076c.21091 1.0473-1.0211 2.1777-2.751 2.5243-1.73.34657-3.3023-.22206-3.5111-1.2698-.21089-1.0473 1.0211-2.1777 2.7511-2.5243 1.73-.34657 3.3023.22206 3.5111 1.2698z"
     fill="#0f6545"
     stroke="#000"
     stroke-linejoin="round"
     stroke-width=".43535"
     id="path199" />
  <path
     d="m286.72 80.905c.05086.25383-.21659.52144-.59734.59772-.38076.076276-.73064-.067663-.78149-.3215-.05085-.25384.21659-.52144.59734-.59772.38076-.076277.73064.067662.78149.3215z"
     fill="#cecfc1"
     id="path201" />
  <path
     d="m315.09 82.344c-.319 1.0196-1.9429 1.4178-3.6262.88933-1.6834-.52852-2.7882-1.7835-2.4671-2.8024.31901-1.0196 1.9429-1.4178 3.6262-.88932 1.6834.52851 2.7882 1.7835 2.4671 2.8024z"
     fill="#0f6545"
     stroke="#000"
     stroke-linejoin="round"
     stroke-width=".43535"
     id="path203" />
  <path
     d="m311.73 80.308c-.07755.24699-.44075.35292-.81124.2366-.3705-.11632-.60797-.41084-.53041-.65783.07755-.24699.44074-.35292.81123-.2366.37049.11632.60797.41084.53042.65784z"
     fill="#cecfc1"
     id="path205" />
  <path
     d="m296.63 78.715h6.337v3.195h-6.337z"
     fill="#1f2d86"
     stroke="#000"
     stroke-linejoin="round"
     stroke-width=".61935"
     id="path207" />
  <path
     d="m299.3 79.395c0 .14463-.26964.26187-.60228.26187-.33265 0-.60231-.11724-.60231-.26187 0-.14463.26966-.26187.60231-.26187.33264 0 .60228.11724.60228.26187z"
     fill="#707c8b"
     id="path209" />
  <path
     d="m278.72 81.909 1.0475 3.09-1.9378 1.0475s-.89035.62848-1.7807.15712c-.89034-.47137-1.4156-1.8831-.94273-2.4616.9381-1.1477 3.6138-1.8855 3.6138-1.8331z"
     fill="#9f1209"
     fill-rule="evenodd"
     stroke="#000"
     stroke-width=".32597"
     id="path211" />
  <path
     d="m277.09 84.109c.00035.52092-.39837.9434-.89034.9434-.49198 0-.89072-.42248-.89036-.9434-.00036-.52092.39838-.9434.89036-.9434.49197 0 .89069.42249.89034.9434z"
     fill="#8f322f"
     id="path213" />
  <path
     d="m276.25 83.74c.02736.16636-.0115.33068-.10194.43094-.09045.10026-.21868.12119-.33631.05491-.11764-.066292-.20675-.20971-.23371-.37614-.02736-.16636.01149-.33068.10194-.43094.09044-.10026.21867-.12119.33631-.054908.11763.066291.20674.20971.23371.37614z"
     fill="#e2a494"
     id="path215" />
  <path
     d="m321.17 82.312-1.0404 2.7521 2.4668 1.2921s1.0908.48665 1.7788-.11747c.58822-.51649.72158-1.7117.25171-2.3158-.44492-.57204-3.4904-1.6278-3.4569-1.611z"
     fill="#9f1209"
     fill-rule="evenodd"
     stroke="#000"
     stroke-width=".32597"
     id="path217" />
  <path
     d="m324.13 84.518c0 .33828-.35312.61251-.78871.61251s-.7887-.27423-.7887-.61251c0-.33828.35311-.61251.7887-.61251s.78871.27423.78871.61251z"
     fill="#aa675d"
     id="path219" />
  <path
     d="m323.37 84.426c.00019.16202-.07014.31184-.18444.39291-.1143.081075-.25517.081075-.36948 0-.11429-.081078-.18462-.23089-.18444-.39291-.00018-.16202.07015-.31183.18444-.39291.11431-.081076.25518-.081076.36948 0 .1143.081078.18463.23089.18444.39291z"
     fill="#e2a494"
     id="path221" />
  <path
     d="m305.34 78.987c.00023144.23518-.19952.42595-.44601.42595-.24649 0-.44625-.19077-.44601-.42595-.00023144-.23518.19952-.42595.44601-.42595s.44625.19077.44601.42595zm2.696.156c.00023144.23518-.19952.42595-.44601.42595-.24649 0-.44625-.19077-.44601-.42595-.00023144-.23518.19952-.42595.44601-.42595s.44625.19077.44601.42595zm-1.3692 1.0448c.00029088.29559-.25077.53537-.56058.53537-.30981 0-.56087-.23977-.56058-.53537-.00029089-.29559.25077-.53537.56058-.53537.30981 0 .56087.23977.56058.53537zm1.3032 1.7622c.00023144.23518-.19952.42595-.44601.42595-.24649 0-.44625-.19077-.44601-.42595-.00023144-.23518.19952-.42595.44601-.42595s.44625.19077.44601.42595zm-2.602-.335c.00023144.23518-.19952.42595-.44601.42595-.24649 0-.44625-.19077-.44601-.42595-.00023144-.23518.19952-.42595.44601-.42595s.44625.19077.44601.42595zm-13.055-2.1668c.053278.22907-.098293.45998-.33843.51559-.24014.055604-.47778-.085189-.53061-.31436-.053278-.22907.098293-.45998.33843-.51559.24014-.055604.47778.085189.53061.31436zm2.662-.45705c.053278.22907-.098293.45998-.33843.51559-.24014.055604-.47778-.085189-.53061-.31436-.053278-.22907.098293-.45998.33843-.51559.24014-.055604.47778.085189.53061.31436zm-1.0792 1.3295c.066971.28792-.12353.57816-.42536.64805-.30183.069894-.60052-.10706-.66693-.39511-.066971-.28792.12353-.57816.42536-.64805.30183-.069894.60052.10706.66693.39511zm1.6486 1.4198c.053278.22907-.098293.45998-.33843.51559-.24014.055604-.47778-.085189-.53061-.31436-.053278-.22907.098293-.45998.33843-.51559.24014-.055604.47778.085189.53061.31436zm-2.6106.26036c.053278.22907-.098293.45998-.33843.51559-.24014.055604-.47778-.085189-.53061-.31436-.053278-.22907.098293-.45998.33843-.51559s.47778.085189.53061.31436zm-11.98-.099712c.085337.21916-.031829.46929-.26161.5585-.22978.089214-.48504-.016326-.56994-.23565-.085337-.21916.031829-.46929.26161-.5585.22978-.089214.48504.016326.56994.23565zm2.5702-.83097c.085337.21916-.031829.46929-.26161.5585-.22978.089214-.48504-.016326-.56994-.23565-.085337-.21916.031829-.46929.26161-.5585.22978-.089214.48504.016326.56994.23565zm-.88601 1.4674c.10727.27545-.039987.58985-.3288.70199-.28881.11214-.60965-.020501-.71637-.29616-.10727-.27545.039987-.58985.3288-.70199.28881-.11214.60965.020501.71637.29616zm1.8406 1.1729c.085337.21916-.031829.46929-.26161.5585-.22978.089214-.48504-.016326-.56994-.23565-.085337-.21916.031829-.46929.26161-.5585.22978-.089214.48504.016326.56994.23565zm-2.5473.62889c.085337.21916-.031829.46929-.26161.5585s-.48504-.016326-.56994-.23565c-.085337-.21916.031829-.46929.26161-.5585.22978-.089214.48504.016326.56994.23565zm35.116-3.6757c-.060045.24617-.31798.3946-.57593.33141-.25794-.063185-.41808-.31402-.35755-.56008.060045-.24617.31798-.3946.57593-.33141.25794.063185.41808.31402.35755.56008zm2.782.85393c-.060045.24617-.31798.3946-.57593.33141-.25794-.063185-.41808-.31402-.35755-.56008.060045-.24617.31798-.3946.57593-.33141.25794.063185.41808.31402.35755.56008zm-1.6968.74596c-.075469.30941-.39967.49597-.72388.41655-.32421-.079417-.52548-.39469-.4494-.70395.075469-.30941.39967-.49597.72388-.41655.32421.079417.52548.39469.4494.70395zm.90869 2.1747c-.060045.24617-.31798.3946-.57593.33141-.25794-.063185-.41808-.31402-.35755-.56008.060045-.24617.31798-.3946.57593-.33141.25794.063185.41808.31402.35755.56008zm-2.6373-1.0182c-.060045.24617-.31798.3946-.57593.33141-.25794-.063185-.41808-.31402-.35755-.56008.060045-.24617.31798-.3946.57593-.33141.25794.063185.41808.31402.35755.56008z"
     fill="#f5d8bc"
     id="path223" />
  <path
     d="m322.48 55.582s-1.2821 1.2019-2.8045 1.2019-2.4039-.64104-2.8847-.96155c-.48077-.32052.16027-1.2821.16027-1.2821"
     fill="none"
     stroke="#000"
     stroke-width=".74973"
     id="path225" />
  <path
     d="m295.56 57.986s-2.3238-.40064-3.2853-.72116c-.96155-.32052-.72117-.96155-1.843-.88142-1.1218.080126-2.2436.88142-2.0033 2.0032.2404 1.1218 1.0417 1.2821 1.843 1.0417.80131-.24039.56093-1.6026-.48077-1.5225-1.0417.080131-.16025.96156-.16025.96156"
     fill="none"
     stroke="#000"
     stroke-width=".68454"
     id="path227" />
  <path
     d="m279.53 56.223s.64103.96155 2.3238.80129c1.6827-.16026 2.3238-1.0417 2.4039-1.4423.08013-.40064 0-1.1218-.32052-1.4423-.32052-.32052-1.4423-.48078-1.4423-.48078"
     fill="none"
     stroke="#000"
     stroke-width=".65194"
     id="path229" />
  <g
     id="g1009"
     inkscape:label="redhand"
     transform="matrix(1.0595527,0,0,1.0595527,79.876203,-7.4118335)">
    <path
       sodipodi:nodetypes="cccssssscscsscsccssscssssssscssccssscscsssccscssscccc"
       d="m 219.25904,166.66105 c 1.47623,-1.45257 3.62815,-2.08657 5.09863,-5.88719 1.23461,-3.27182 2.17456,-8.44052 3.01355,-11.55627 0.30953,-1.09784 0.72407,-3.22152 1.09756,-4.7784 0.32662,-1.36152 0.90913,-2.7712 1.07527,-3.33313 0.32308,-1.09273 0.43188,-2.36825 0.57388,-3.26 0.30903,-1.94054 0.5732,-3.28888 -0.89048,-3.14437 -1.52898,0.15096 -1.97325,0.37768 -2.60348,1.29849 -0.58159,0.84974 -1.32971,2.07255 -1.76935,3.44288 -0.60092,1.98218 -1.03426,3.76929 -1.56934,5.15228 -0.62179,1.60708 -0.73646,1.38669 -1.64054,3.29531 -1.24865,-1.65981 -1.33748,-2.99954 -1.6458,-5.30924 -0.30673,-2.29782 -0.55944,-4.74213 -0.64654,-7.37449 -0.16382,-4.95076 -0.4524,-10.1388 -0.51272,-12.06144 -0.16223,-2.53854 0.0133,-6.19137 -0.58202,-8.06736 -0.2775,-0.87445 -0.88744,-2.07959 -2.05442,-2.04289 -1.35359,0.01 -2.21698,1.07384 -2.39981,2.18004 -0.13175,0.87414 -0.19694,2.55045 -0.24994,3.68243 -0.077,1.64502 -0.0667,3.05501 -0.004,4.67468 0.0688,1.78021 0.0151,7.23696 -0.0203,9.01211 -0.0654,3.27744 -0.47267,3.45832 -1.08099,3.41644 -0.4689,-0.39162 -0.23161,-6.69477 -0.41709,-12.13602 -0.0704,-2.06436 -0.12503,-4.79276 -0.16093,-6.68825 -0.029,-1.53295 -0.0283,-3.36608 -0.19273,-4.55696 -0.28065,-2.03184 -0.8783,-3.34063 -2.35218,-3.34063 -0.99407,0 -1.81643,0.0334 -2.27162,2.29301 -0.24534,1.2179 -0.35023,4.18955 -0.31683,5.81751 0.0373,1.81825 0.0447,2.89002 0.0939,5.39182 0.0898,4.57085 0.48348,12.86914 -0.60709,13.07765 -0.95481,-0.20459 -0.81353,-2.00028 -0.98078,-6.3422 -0.0659,-1.71046 -0.20943,-4.63764 -0.3012,-6.61048 -0.10972,-2.35903 -0.24064,-5.79423 -0.29976,-7.36791 -0.16084,-1.45365 -0.30224,-3.40286 -2.13164,-3.23846 -0.96032,-0.11738 -1.66448,0.61509 -2.07391,3.20421 -0.22801,1.44189 -0.0726,7.18926 0.0145,9.10082 0.17333,3.80527 0.1183,4.73539 0.13968,7.1312 0.0208,2.32477 0.2452,5.49198 -0.62068,5.54684 -1.04246,-0.0153 -0.74332,-1.69522 -0.91455,-4.35813 -0.16801,-2.61288 -0.27406,-5.94559 -0.25279,-5.18065 0,-1.34533 -0.16617,-3.32206 -0.28753,-4.97458 -0.0949,-1.29053 -0.0356,-2.71431 -1.4354,-2.60059 -1.42071,0.11542 -2.29283,0.59574 -2.58674,3.02805 -0.1904,1.57562 -0.24265,4.98198 -0.28409,6.21667 0.15272,3.1407 -0.61448,9.52948 -0.99471,11.61161 -0.10386,1.47537 -0.75823,4.32809 -1.00457,6.3849 -0.52998,4.42651 -0.74019,7.48802 -0.15434,10.14074 0.46046,2.31491 0.78691,4.12478 1.68274,5.98201 0.83192,1.72476 2.38746,3.37637 2.72959,4.79344 0.6679,2.76639 0.35549,8.10587 0.35549,10.34925 0,2.24339 1.94877,2.36428 5.98307,1.49554 6.59595,-1.42089 10.20037,1.42087 15.64695,-0.67303 -0.69104,-6.20659 0.65527,-9.93795 0.61982,-12.18134 z"
       id="path3484-5"
       style="fill:#cc0000;fill-opacity:1;stroke:#161111;stroke-width:0.94945729;stroke-linecap:round;stroke-linejoin:round;stroke-miterlimit:4;stroke-dasharray:none;stroke-opacity:1"
       inkscape:connector-curvature="0" />
    <path
       sodipodi:nodetypes="cc"
       inkscape:connector-curvature="0"
       style="fill:none;fill-opacity:1;stroke:#161111;stroke-width:0.94999999;stroke-miterlimit:4;stroke-dasharray:none;stroke-opacity:1"
       id="path3488-5"
       d="m 210.25099,160.65706 c 0.15032,-7.6679 7.10491,-16.02921 9.77711,-17.67446" />
    <path
       sodipodi:nodetypes="cccc"
       inkscape:connector-curvature="0"
       id="path3953-9"
       d="m 200.34284,148.06421 c 2.05418,-0.8101 4.18709,-1.3982 6.27428,-2.1119 2.55434,-0.72051 5.02785,-1.75322 7.6637,-2.16138 1.26995,-0.25881 4.30908,-1.06687 5.60442,-1.15428"
       style="fill:none;stroke:#161111;stroke-width:0.94999999;stroke-linecap:butt;stroke-linejoin:miter;stroke-miterlimit:4;stroke-dasharray:none;stroke-opacity:1" />
    <path
       sodipodi:nodetypes="ccccsc"
       inkscape:connector-curvature="0"
       id="path3960-0"
       d="m 196.37517,167.9824 c 0.2192,0.39 0.73719,0.4111 1.46518,0.46569 0.79999,0.0119 0.92234,0.0371 1.42866,0.034 0.89582,-0.0129 1.47455,-0.0137 2.3703,0.003 0.68144,-0.0215 2.98867,-0.46473 4.70583,-0.60288 0.96102,-0.0773 1.72798,0.14927 2.22598,0.18287"
       style="fill:none;stroke:#161111;stroke-width:0.94999999;stroke-linecap:round;stroke-linejoin:round;stroke-miterlimit:4;stroke-dasharray:none;stroke-opacity:1" />
    <path
       sodipodi:nodetypes="csccc"
       inkscape:connector-curvature="0"
       id="path3962-8"
       d="m 207.37544,167.88216 c 0.14622,0.12008 1.44908,0.11259 2.40739,0.4086 0.8459,0.26133 1.43766,0.31529 1.59281,0.37659 0.59043,0.0638 0.20066,0.37733 3.50599,0.11118 2.05032,0.13101 3.86567,-1.63948 4.37741,-2.11748"
       style="fill:none;stroke:#161111;stroke-width:0.9495669px;stroke-linecap:round;stroke-linejoin:round;stroke-opacity:1" />
  </g>
</svg>
