<?xml version="1.0" encoding="UTF-8"?>
<svg xmlns="http://www.w3.org/2000/svg" width="1200" height="600" viewBox="0 0 48 24">
<clipPath id="c1"><path d="M0,0H24V15H0z"/></clipPath>
<clipPath id="c2"><path d="M0,0V6H22V12H21zM21,0H10.5V13H0V12z"/></clipPath>
<g>
<rect width="48" height="24" fill="#012169"/>
<path d="M0,0 21,12M21,0 0,12" stroke="#fff" stroke-width="2.4" clip-path="url(#c1)"/>
<path d="M0,0 21,12M21,0 0,12" stroke="#c8102e" stroke-width="1.6" clip-path="url(#c2)"/>
<path d="M10.5,0V15M0,6H24" stroke="#fff" stroke-width="4"/>
<path d="M10.5,0V15M0,6H24" stroke="#c8102e" stroke-width="2.4"/>
<path d="M21,12V9L24,6 21,3V0H48V24H0V18z" fill="#fff"/>
<path d="M21,6V9H48V3zM0,15V18H48V12z" fill="#012169"/>
<path d="M21,4.5H48M0,13.5H48M0,22.5H48" stroke="#c8102e" stroke-width="3"/>
</g>
</svg>
